<svg xmlns="http://www.w3.org/2000/svg" xmlns:xlink="http://www.w3.org/1999/xlink" width="18" height="19" viewBox="0 0 18 19">
  <defs>
    <clipPath id="clip-path">
      <rect id="Rectángulo_34" data-name="Rectángulo 34" width="18" height="19" transform="translate(0 0.14)" fill="#fff"/>
    </clipPath>
  </defs>
  <g id="Enmascarar_grupo_14" data-name="Enmascarar grupo 14" transform="translate(0 -0.14)" clip-path="url(#clip-path)">
    <path id="iconmonstr-control-panel-5" d="M9.124,7.291a.76.76,0,1,1-.76.76A.761.761,0,0,1,9.124,7.291Zm0-1.521A2.281,2.281,0,1,0,11.4,8.051,2.281,2.281,0,0,0,9.124,5.77ZM2.281,8.812a2.281,2.281,0,1,0,2.281,2.281A2.281,2.281,0,0,0,2.281,8.812Zm13.686,0a2.281,2.281,0,1,0,2.281,2.281A2.281,2.281,0,0,0,15.967,8.812ZM9.124,4.25a3.792,3.792,0,0,1,.76.077V1.969a.76.76,0,1,0-1.521,0V4.326A3.792,3.792,0,0,1,9.124,4.25Zm6.843,3.041a3.792,3.792,0,0,1,.76.077v-5.4a.76.76,0,0,0-1.521,0v5.4A3.792,3.792,0,0,1,15.967,7.291Zm0,7.6a3.792,3.792,0,0,1-.76-.077v2.358a.76.76,0,1,0,1.521,0V14.817A3.792,3.792,0,0,1,15.967,14.894ZM2.281,7.291a3.792,3.792,0,0,1,.76.077v-5.4a.76.76,0,1,0-1.521,0v5.4A3.792,3.792,0,0,1,2.281,7.291Zm6.843,4.562a3.792,3.792,0,0,1-.76-.077v5.4a.76.76,0,1,0,1.521,0v-5.4A3.792,3.792,0,0,1,9.124,11.853ZM2.281,14.894a3.792,3.792,0,0,1-.76-.077v2.358a.76.76,0,1,0,1.521,0V14.817A3.792,3.792,0,0,1,2.281,14.894Z" transform="translate(0 -0.009)" fill="#fff"/>
  </g>
</svg>
