<svg xmlns="http://www.w3.org/2000/svg" xmlns:xlink="http://www.w3.org/1999/xlink" width="16" height="17" viewBox="0 0 16 17">
  <defs>
    <clipPath id="clip-path">
      <rect id="Rectángulo_37" data-name="Rectángulo 37" width="16" height="17" transform="translate(0 -0.3)" fill="#fff"/>
    </clipPath>
  </defs>
  <g id="Enmascarar_grupo_17" data-name="Enmascarar grupo 17" transform="translate(0 0.3)" clip-path="url(#clip-path)">
    <path id="iconmonstr-email-12" d="M8.3,16.4c-5.384,0-8.3-3.36-8.3-7.7C0,4.072,3.281.352,9.148.352c4.282,0,7.39,2.783,7.39,6.616,0,6-7.118,7.588-6.761,4.163a3.143,3.143,0,0,1-2.793,1.622c-1.734,0-2.811-1.269-2.811-3.312,0-3.062,2.013-5.65,4.4-5.65a2.253,2.253,0,0,1,2.258,1.53l.32-1.125h1.611c-.168.573-1.6,5.876-1.6,5.876-.447,1.837.93,1.869,2.151.894C15.6,9.189,15.722,4.54,12.621,2.6,9.3.608,1.737,1.841,1.737,8.591c0,3.866,2.722,6.464,6.773,6.464a9.257,9.257,0,0,0,5.027-1.342l.811,1.17A11.754,11.754,0,0,1,8.3,16.4ZM6.683,6.548A7.03,7.03,0,0,0,5.872,9.6c0,2.488,2.427,2.5,3.619.165A7.468,7.468,0,0,0,10.3,6.64c0-2.01-2.408-2.366-3.615-.092Z" transform="translate(0 -0.185)" fill="#fff"/>
  </g>
</svg>
