<svg xmlns="http://www.w3.org/2000/svg" xmlns:xlink="http://www.w3.org/1999/xlink" width="18" height="18" viewBox="0 0 18 18">
  <defs>
    <clipPath id="clip-path">
      <rect id="Rectángulo_35" data-name="Rectángulo 35" width="18" height="18" transform="translate(0 0.36)" fill="#fff"/>
    </clipPath>
  </defs>
  <g id="Enmascarar_grupo_15" data-name="Enmascarar grupo 15" transform="translate(0 -0.36)" clip-path="url(#clip-path)">
    <path id="iconmonstr-help-6" d="M9.124,2.729c4.192,0,7.6,2.731,7.6,6.088,0,3.738-3.912,6.053-7.535,6.053a12.964,12.964,0,0,1-3.341-.49A10.254,10.254,0,0,1,2.6,15.763a7.116,7.116,0,0,0,.458-3.243,5.354,5.354,0,0,1-1.54-3.7c0-3.357,3.41-6.088,7.6-6.088Zm0-1.521C4.3,1.208,0,4.421,0,8.817a6.7,6.7,0,0,0,1.556,4.277A11.946,11.946,0,0,1,.041,17.935a21.9,21.9,0,0,0,6.066-1.928,13.042,13.042,0,0,0,3.086.382c5.386,0,9.055-3.678,9.055-7.573,0-4.418-4.335-7.608-9.124-7.608ZM9.9,11.833a.779.779,0,1,1-.779-.779A.779.779,0,0,1,9.9,11.833Zm.867-6.228a2.2,2.2,0,0,0-1.589-.6A2.208,2.208,0,0,0,6.945,7.471H8.2c0-.925.517-1.254.959-1.254A.823.823,0,0,1,10,6.98c.04.528-.243.8-.6,1.135a2.292,2.292,0,0,0-.892,2.161H9.763a1.645,1.645,0,0,1,.582-1.357A2.79,2.79,0,0,0,11.3,7.036a1.949,1.949,0,0,0-.533-1.431Z" transform="translate(0 0.134)" fill="#fff"/>
  </g>
</svg>
